# xmcd
#
# Track frame offsets:
#	225
#	13389
#	21847
#	33168
#	47345
#	59527
#	66575
#	79150
#	88186
#	103771
#	117931
#	129064
#	142318
#	152570
#	165567
#
# Disc length: 2422 seconds
#
# Revision: 1
# Processed by: cddbd v1.5.2PL0 Copyright (c) Steve Scherf et al.
# Submitted via: audiograbber 1.83.01
#
DISCID=cb09730f
DTITLE=Tina Rauch - Live In Concert Vol. 4
DYEAR=2006
DGENRE=Country and Western
TTITLE0=Honky Tonk Angels
TTITLE1=Houston
TTITLE2=Blue Moon Of Kentucky
TTITLE3=Lonely Street
TTITLE4=Faded Love
TTITLE5=Honky Tonk Merry Go Round
TTITLE6=Blue Eyes Crying In The Rain
TTITLE7=Walking After Midnight
TTITLE8=Today I Started Loving You Again
TTITLE9=Last Cheaters Waltz
TTITLE10=Lovesick Blues
TTITLE11=To Know You Is To Love You
TTITLE12=I Love You Honey
TTITLE13=The Rose
TTITLE14=There Gos My Reason For Livin'
EXTD=
EXTT0=
EXTT1=
EXTT2=
EXTT3=
EXTT4=
EXTT5=
EXTT6=
EXTT7=
EXTT8=
EXTT9=
EXTT10=
EXTT11=
EXTT12=
EXTT13=
EXTT14=
PLAYORDER=
